<?xml version="1.0" standalone="no"?>
<!DOCTYPE svg PUBLIC "-//W3C//DTD SVG 20010904//EN"
 "http://www.w3.org/TR/2001/REC-SVG-20010904/DTD/svg10.dtd">
<svg version="1.0" xmlns="http://www.w3.org/2000/svg"
 width="479.000000pt" height="479.000000pt" viewBox="0 0 479.000000 479.000000"
 preserveAspectRatio="xMidYMid meet">

<g transform="translate(0.000000,479.000000) scale(0.100000,-0.100000)"
fill="#000000" stroke="none">
<path d="M2395 4550 c-4 -23 -5 -44 -2 -46 3 -3 8 13 12 36 4 23 5 44 2 46 -3
3 -8 -13 -12 -36z"/>
<path d="M2375 4440 c-4 -28 -5 -54 -2 -56 3 -3 8 18 12 46 4 28 5 54 2 56 -3
3 -8 -18 -12 -46z"/>
<path d="M2425 4440 c9 -89 74 -429 85 -448 8 -14 9 -13 5 8 -3 14 -23 126
-45 250 -43 235 -54 283 -45 190z"/>
<path d="M2356 4329 c-4 -23 -5 -44 -2 -46 2 -2 7 14 11 37 4 23 5 43 2 46 -2
3 -7 -14 -11 -37z"/>
<path d="M2338 4245 c-4 -18 -2 -33 5 -37 17 -11 27 -10 27 2 0 6 -4 10 -9 10
-5 0 -11 12 -13 28 l-3 27 -7 -30z"/>
<path d="M2370 4259 c0 -5 5 -7 10 -4 6 3 10 8 10 11 0 2 -4 4 -10 4 -5 0 -10
-5 -10 -11z"/>
<path d="M1841 4222 c-2 -33 44 -196 59 -210 9 -10 22 -26 29 -37 11 -18 12
-17 6 10 -3 17 -14 36 -23 43 -9 7 -29 56 -44 110 -14 53 -27 91 -27 84z"/>
<path d="M2280 4211 c0 -28 -10 -32 -129 -52 -58 -10 -128 -22 -154 -27 -42
-8 -49 -7 -61 9 -17 25 -27 13 -14 -17 13 -28 16 -29 90 -9 30 7 95 19 144 26
120 15 134 21 134 59 0 16 -2 30 -5 30 -3 0 -5 -9 -5 -19z"/>
<path d="M2530 4200 c0 -36 16 -45 95 -54 33 -4 102 -16 154 -26 57 -12 99
-16 104 -11 12 12 -3 16 -172 46 -137 23 -160 33 -161 63 0 6 -4 12 -10 12 -5
0 -10 -13 -10 -30z"/>
<path d="M2140 4190 c0 -5 5 -10 11 -10 5 0 7 5 4 10 -3 6 -8 10 -11 10 -2 0
-4 -4 -4 -10z"/>
<path d="M2030 4180 c0 -5 7 -10 15 -10 8 0 15 5 15 10 0 6 -7 10 -15 10 -8 0
-15 -4 -15 -10z"/>
<path d="M2320 4166 c0 -7 7 -13 15 -13 8 0 15 4 15 8 0 4 -7 9 -15 13 -9 3
-15 0 -15 -8z"/>
<path d="M2921 4120 c-31 -72 -37 -110 -18 -110 9 0 19 5 22 10 3 6 1 10 -4
10 -17 0 -12 41 9 89 11 24 19 46 17 48 -3 2 -14 -19 -26 -47z"/>
<path d="M2316 4131 c-3 -5 1 -11 9 -15 8 -3 15 -1 15 4 0 13 -18 22 -24 11z"/>
<path d="M2996 4114 c-14 -37 -6 -51 42 -70 26 -10 121 -55 211 -101 90 -45
168 -80 173 -77 14 9 -20 30 -175 105 -245 120 -232 112 -230 137 3 25 -12 30
-21 6z"/>
<path d="M1000 4100 c7 -14 21 -36 30 -50 9 -14 36 -61 60 -105 24 -44 90
-162 147 -261 56 -100 103 -184 103 -188 0 -3 -7 -3 -15 0 -11 5 -14 0 -13
-17 2 -18 -2 -24 -14 -23 -10 1 -18 -2 -18 -7 0 -5 -12 -14 -27 -20 -22 -8
-25 -12 -13 -20 13 -8 10 -13 -12 -34 -16 -13 -28 -29 -28 -35 0 -5 -4 -10 -8
-10 -22 0 -54 -40 -49 -61 4 -15 2 -19 -8 -15 -9 3 -15 -3 -17 -17 -2 -14 -11
-23 -26 -25 -19 -3 -23 -9 -20 -31 1 -15 -4 -39 -13 -52 -27 -45 -63 -124 -90
-199 -21 -59 -31 -76 -50 -80 -23 -6 -23 -7 -5 -17 19 -10 18 -11 -2 -17 -12
-4 -22 -11 -22 -16 0 -5 7 -7 15 -4 19 8 19 4 -2 -128 -17 -108 -32 -131 -44
-72 l-7 29 -1 -33 c-1 -30 3 -34 47 -53 26 -11 74 -26 107 -31 l60 -11 -55
-12 c-30 -7 -72 -20 -92 -29 -32 -14 -38 -21 -38 -47 0 -16 -4 -28 -9 -25 -4
3 -7 21 -6 40 1 33 0 35 -24 29 -34 -8 -39 -13 -13 -13 20 0 22 -5 22 -51 0
-41 3 -50 15 -45 10 3 15 -1 15 -14 0 -23 -16 -35 -23 -18 -3 7 -6 0 -6 -16
-1 -24 2 -27 19 -23 17 4 20 0 22 -26 2 -50 3 -55 11 -63 10 -11 9 -34 -3 -34
-5 0 -10 7 -10 15 0 8 -4 15 -10 15 -5 0 -10 12 -10 27 0 14 -3 23 -6 20 -7
-6 8 -96 27 -170 9 -34 12 -36 30 -26 19 9 20 8 14 -10 -4 -12 0 -34 9 -52 14
-28 14 -30 -2 -27 -9 2 -25 19 -34 38 -18 35 -18 35 -12 5 9 -42 40 -68 66
-54 18 10 18 9 8 -11 -6 -11 -15 -18 -21 -15 -13 9 -11 -1 12 -56 20 -46 39
-57 39 -23 0 8 -5 12 -10 9 -6 -3 -15 6 -20 20 -13 35 -13 45 3 44 18 0 126
-227 111 -233 -14 -5 -29 15 -63 82 -12 24 -24 42 -27 40 -6 -7 66 -138 77
-138 5 0 9 -7 9 -15 0 -8 4 -15 9 -15 5 0 11 -8 15 -17 26 -77 146 -206 146
-158 0 8 5 15 10 15 6 0 10 -11 10 -24 0 -18 6 -25 23 -28 23 -3 30 -29 10
-36 -7 -2 -13 2 -13 10 0 7 -12 19 -27 25 l-27 13 30 -28 c16 -15 41 -34 56
-41 33 -17 42 -38 26 -60 -12 -14 -11 -15 5 -2 10 8 15 21 12 31 -3 10 5 26
20 40 28 26 30 21 13 -27 -12 -32 -11 -35 19 -63 30 -28 52 -34 146 -40 5 0 5
-9 2 -20 -4 -13 -1 -22 10 -26 9 -4 13 -13 11 -23 -3 -9 -1 -23 4 -31 7 -11
10 -11 10 -2 0 8 10 3 23 -11 25 -27 78 -57 101 -57 8 0 19 -6 23 -14 8 -14
83 -49 90 -42 2 2 -14 11 -37 20 -22 9 -40 23 -40 31 0 20 8 19 45 -3 17 -10
42 -21 56 -25 14 -4 43 -14 65 -23 21 -10 46 -18 54 -19 8 -1 35 -8 59 -14 31
-9 41 -15 33 -23 -8 -8 -7 -15 6 -24 26 -21 52 -17 47 6 -3 17 0 18 28 13 18
-3 40 -10 49 -14 9 -5 31 -9 48 -9 17 0 41 -7 54 -15 35 -23 70 -14 77 21 5
20 8 8 10 -41 2 -53 3 -59 6 -27 2 23 8 42 14 42 5 0 9 -4 9 -10 0 -5 7 -10
16 -10 14 0 14 1 0 16 -18 18 -23 36 -30 117 -3 44 -1 57 9 57 9 0 16 -17 20
-48 14 -96 23 -119 52 -125 15 -3 51 -3 80 0 51 6 67 16 41 26 -7 3 -2 6 12 6
50 0 230 48 302 81 24 11 55 20 71 20 15 0 27 4 27 9 0 14 32 23 44 11 16 -16
28 -12 18 7 -8 13 -4 20 16 31 19 9 28 10 30 2 2 -6 11 -3 20 8 29 33 75 58
80 44 2 -7 8 -10 12 -7 5 3 7 11 4 18 -5 15 51 51 66 42 5 -3 7 0 4 9 -3 8
-13 17 -22 19 -16 4 59 11 85 8 7 -1 18 7 25 19 17 27 22 26 63 -14 19 -19 35
-28 35 -21 0 13 -40 52 -94 91 l-28 20 27 18 c24 16 28 16 44 2 10 -9 22 -16
28 -16 10 0 52 41 52 50 0 19 16 40 27 36 10 -4 14 3 14 19 0 14 5 25 10 25 6
0 10 -5 10 -11 0 -5 5 -7 11 -4 6 4 8 14 5 22 -3 8 4 27 15 42 15 21 27 27 42
23 19 -5 20 -3 9 11 -12 14 -6 29 46 109 33 51 67 101 76 111 9 9 16 23 16 30
0 6 12 40 26 73 21 50 30 61 45 57 10 -3 19 0 19 6 0 6 -9 11 -21 11 -11 0
-18 4 -14 10 3 5 12 7 19 4 18 -7 32 16 16 26 -8 5 -7 9 4 13 13 5 14 10 5 26
-17 25 6 112 27 104 8 -3 14 0 14 6 0 6 -5 11 -11 11 -11 0 -3 135 10 155 3 6
6 12 6 15 1 3 4 14 8 25 4 11 3 40 -1 65 -7 41 -11 46 -52 63 l-45 18 47 -4
c29 -3 49 0 51 7 3 8 64 11 204 10 245 -2 429 -13 393 -25 -20 -7 -19 -8 9 -4
18 3 41 5 50 6 9 0 -4 7 -29 16 -60 20 -698 26 -722 6 -10 -9 -28 -10 -59 -5
l-44 8 45 8 c89 14 151 38 146 55 -12 43 -27 165 -23 182 3 10 1 17 -4 14 -4
-3 -11 7 -14 22 -9 40 -75 233 -91 265 -8 15 -14 34 -14 42 0 8 -11 27 -25 42
-14 15 -25 35 -25 44 0 9 -9 25 -20 35 -11 10 -20 27 -20 38 0 13 -5 17 -16
13 -13 -5 -14 -1 -9 23 5 25 2 30 -24 41 -17 7 -36 25 -43 41 -7 16 -19 29
-25 29 -7 0 -13 9 -13 20 0 12 -9 24 -23 29 -28 11 -77 66 -77 87 0 9 -4 12
-10 9 -5 -3 -23 1 -38 10 -27 16 -30 16 -62 -3 -18 -12 -55 -42 -82 -68 -26
-25 -48 -43 -48 -39 0 4 16 33 35 65 44 73 94 186 67 152 l-19 -24 -38 36
c-21 20 -44 36 -51 36 -7 0 -16 4 -19 10 -3 5 -26 18 -50 29 -25 11 -45 25
-45 30 0 6 -9 11 -20 11 -24 0 -90 31 -90 42 0 4 -7 8 -15 8 -9 0 -29 7 -45
15 -20 10 -31 12 -35 4 -5 -6 -12 -3 -21 9 -10 14 -24 19 -50 18 -22 -1 -40 4
-48 14 -6 8 -22 16 -36 17 -14 0 -65 11 -114 22 -93 22 -206 28 -206 12 0 -5
-2 -16 -5 -24 -5 -11 6 -14 52 -16 90 -2 290 -38 299 -52 3 -5 14 -9 25 -9 21
0 23 -8 10 -29 -10 -15 -21 -14 -198 30 -115 29 -123 30 -152 14 -18 -9 -36
-13 -41 -10 -6 4 -10 -8 -10 -27 0 -18 -5 -40 -10 -48 -7 -10 -8 21 -4 95 7
112 2 131 -15 59 -8 -34 -9 -35 -10 -11 -1 29 -1 29 -58 26 -32 -2 -63 -1 -69
3 -14 9 -238 -48 -242 -62 -3 -7 -8 -8 -16 -1 -6 5 -18 6 -25 2 -10 -7 -10
-14 2 -37 15 -30 31 -104 23 -104 -3 0 -13 26 -22 58 -21 68 -30 80 -46 64 -9
-9 -9 -15 0 -24 7 -7 12 -17 12 -23 0 -14 -170 -85 -202 -85 -35 0 110 73 150
75 41 3 49 10 32 30 -17 21 -43 14 -144 -36 -43 -21 -82 -36 -87 -33 -5 3 -14
2 -20 -2 -8 -5 -8 -9 1 -14 6 -4 -8 -13 -36 -20 -45 -13 -84 -40 -84 -58 0
-12 -50 -33 -61 -27 -10 7 -13 -28 -2 -38 3 -4 27 5 52 19 40 22 43 23 21 3
-14 -12 -34 -28 -45 -35 -19 -14 -19 -16 -4 -42 8 -15 28 -49 44 -77 l28 -50
-44 41 c-73 68 -117 97 -136 89 -10 -3 -19 -6 -21 -5 -2 1 -12 -8 -22 -20
l-19 -21 -14 23 c-23 36 -124 216 -226 400 -50 91 -99 172 -108 180 -15 12
-15 11 -3 -12z m1370 -220 c0 -16 -7 -20 -37 -20 -21 0 -68 -3 -105 -7 -85 -7
-91 9 -10 27 31 7 62 14 67 15 6 2 27 4 48 4 31 1 37 -2 37 -19z m528 -66 c48
-10 166 -56 231 -91 52 -28 168 -101 191 -120 6 -6 -32 -73 -42 -73 -4 0 -8 5
-8 10 0 6 -10 10 -23 10 -27 0 -68 42 -82 85 -8 24 -17 31 -42 33 -30 3 -33 1
-33 -22 0 -16 -6 -26 -15 -26 -17 0 -19 14 -5 40 8 15 2 23 -33 46 -48 33
-127 74 -142 74 -6 0 -21 7 -33 16 -19 13 -20 18 -10 37 11 19 13 20 16 5 2
-10 16 -21 30 -24z m-55 -49 c-7 -21 -13 -19 -13 6 0 11 4 18 10 14 5 -3 7
-12 3 -20z m102 -56 c4 -6 17 -14 29 -20 17 -7 15 -8 -14 -6 -24 1 -36 7 -38
20 -4 19 13 23 23 6z m573 -277 c45 -47 82 -92 82 -101 0 -9 9 -22 20 -29 11
-7 20 -19 20 -27 0 -8 5 -15 10 -15 6 0 10 -4 10 -10 0 -5 7 -18 16 -27 21
-24 114 -190 114 -205 0 -6 14 -42 32 -80 26 -57 29 -72 20 -92 -9 -20 -7 -27
9 -42 18 -16 18 -18 2 -36 -9 -10 -29 -25 -46 -33 -26 -13 -28 -13 -16 1 10
12 8 23 -11 62 -34 69 -40 76 -55 55 -10 -13 -10 -23 2 -50 7 -19 11 -38 8
-43 -9 -14 -35 -12 -35 2 0 6 -7 19 -16 29 -20 22 -12 46 18 59 13 5 19 9 15
9 -5 1 -1 9 9 18 16 17 16 18 -6 23 -24 6 -51 50 -70 115 -21 71 -32 95 -46
95 -8 0 -14 4 -14 8 0 5 -11 14 -25 20 -36 17 -31 34 23 82 26 23 39 37 30 30
-9 -6 -23 -8 -29 -4 -7 4 -9 3 -6 -3 4 -6 -6 -19 -21 -28 l-27 -18 20 22 c14
16 15 22 5 19 -9 -2 -16 6 -18 21 -5 34 -99 169 -123 176 -10 4 -27 4 -37 1
-24 -8 -57 27 -48 50 5 13 9 15 18 6 17 -17 31 -15 24 4 -4 9 -1 23 5 30 17
20 42 3 137 -94z m-2079 93 c-2 -2 -20 -23 -39 -45 -19 -23 -63 -71 -98 -107
-85 -90 -86 -92 -54 -127 29 -31 16 -27 -36 13 l-34 25 26 13 c14 7 40 35 57
61 41 60 150 171 168 172 8 0 12 -2 10 -5z m-261 -316 c-12 -16 -26 -29 -30
-29 -5 0 -13 -12 -19 -26 -5 -15 -12 -24 -16 -20 -7 6 24 72 45 94 6 7 12 18
12 24 0 7 5 6 15 -2 12 -10 11 -16 -7 -41z m-98 -164 c0 -14 -45 -133 -56
-150 -8 -11 -14 -36 -14 -56 0 -20 -7 -50 -15 -65 -15 -29 -28 -89 -40 -176
-3 -27 -10 -48 -16 -48 -11 0 -11 -4 1 119 17 158 50 271 108 359 13 20 32 30
32 17z m2560 -191 c0 -8 -4 -14 -10 -14 -5 0 -10 9 -10 21 0 11 5 17 10 14 6
-3 10 -13 10 -21z m255 -219 c7 -36 6 -38 -8 -25 -9 9 -16 36 -17 65 -5 101 2
91 25 -40z m-2979 -531 c-4 -9 -2 -22 4 -29 8 -10 8 -15 0 -20 -15 -9 -19 -5
-26 33 -5 26 -3 32 11 32 12 0 15 -5 11 -16z m84 -88 c0 -2 -7 -7 -16 -10 -8
-3 -12 -2 -9 4 6 10 25 14 25 6z m455 -268 l-6 -23 18 22 c16 20 24 21 81 16
60 -6 62 -7 62 -35 0 -16 -6 -31 -14 -34 -8 -3 -12 -12 -9 -20 5 -13 -9 -56
-42 -129 -30 -67 -43 -104 -37 -109 3 -3 27 -6 54 -6 48 0 49 -1 46 -27 -3
-27 -5 -28 -58 -26 -30 1 -67 2 -82 2 -27 1 -28 3 -28 53 0 31 6 58 14 67 17
19 86 177 86 197 0 9 -11 14 -27 14 -52 0 -73 11 -73 36 0 13 5 24 11 24 6 0
8 -9 4 -22z m366 -7 l29 -29 0 -141 c0 -133 -1 -141 -24 -168 -21 -24 -31 -28
-77 -27 -44 0 -56 5 -76 28 -22 26 -23 35 -23 159 0 142 8 173 50 194 44 22
88 16 121 -16z m137 17 c5 -7 24 -57 42 -110 17 -54 36 -98 41 -98 5 0 9 47 9
105 l0 105 25 0 25 0 0 -146 c0 -141 -1 -146 -20 -141 -11 3 -23 1 -26 -4 -9
-15 15 -39 32 -32 10 4 14 -4 14 -31 0 -32 -3 -36 -25 -36 -29 0 -42 23 -75
137 -11 40 -25 75 -30 78 -6 4 -10 -33 -10 -99 l0 -106 -30 0 -30 0 0 188 c0
104 3 192 7 195 11 11 40 8 51 -5z m940 -15 c-3 -26 -7 -28 -51 -31 l-48 -3 3
-52 c3 -51 4 -52 38 -57 26 -4 36 -10 38 -27 3 -19 -2 -22 -35 -25 l-38 -3 -3
-57 -3 -57 53 -3 c45 -3 53 -6 56 -24 3 -19 -3 -22 -74 -27 -42 -4 -80 -4 -85
-1 -5 3 -9 90 -9 194 l0 189 68 4 c37 2 73 4 80 5 9 1 12 -7 10 -25z m174 17
c21 -6 44 -21 53 -33 27 -39 16 -146 -18 -169 -10 -6 -5 -27 32 -145 9 -33 9
-33 -23 -33 -31 0 -33 2 -57 78 -13 42 -28 77 -34 77 -6 0 -11 -34 -13 -77
l-3 -78 -29 0 -30 0 0 195 0 195 43 0 c23 0 59 -5 79 -10z m282 -13 c21 -21
24 -37 31 -140 8 -130 2 -172 -28 -204 -30 -34 -109 -32 -142 2 -24 23 -25 28
-25 170 0 142 1 147 25 170 34 34 106 35 139 2z m-1022 -172 c20 -99 37 -186
37 -192 1 -8 -11 -13 -27 -13 -25 0 -29 5 -38 43 -9 41 -10 42 -49 42 -38 0
-40 -1 -48 -42 -7 -39 -11 -43 -38 -43 -33 0 -34 5 -14 80 8 30 24 107 36 170
27 151 23 142 66 138 l38 -3 37 -180z m337 161 c12 -13 24 -39 28 -59 5 -32 3
-37 -20 -42 -31 -8 -50 2 -43 22 8 21 -11 53 -32 53 -36 0 -42 -20 -42 -146 0
-130 8 -152 50 -139 15 5 20 15 20 41 0 38 22 54 49 37 11 -7 15 -21 13 -44
-5 -48 -26 -75 -66 -89 -29 -9 -41 -8 -71 6 -20 9 -39 24 -44 33 -5 9 -9 76
-10 149 -2 173 12 201 100 202 35 0 51 -5 68 -24z m-1524 -125 c7 -12 -12 -24
-25 -16 -11 7 -4 25 10 25 5 0 11 -4 15 -9z m23 -53 c-2 -14 2 -22 9 -21 18 4
63 -55 56 -74 -5 -14 -12 -10 -36 18 -45 53 -59 77 -52 89 11 18 26 11 23 -12z
m1685 -338 c6 -16 15 -30 20 -30 4 0 13 14 18 30 7 19 18 30 30 30 17 0 19 -8
19 -65 0 -51 -3 -65 -15 -65 -10 0 -15 10 -15 28 -1 24 -2 25 -14 10 -16 -22
-35 -23 -42 -3 -9 22 -27 18 -21 -4 6 -24 -7 -46 -22 -37 -12 8 -16 118 -4
129 15 15 35 5 46 -23z m-879 4 c19 -18 19 -17 5 -47 -8 -18 -8 -30 0 -46 10
-18 9 -21 -6 -21 -10 0 -24 10 -32 22 l-14 22 -8 -23 c-14 -37 -34 -19 -37 34
-2 26 -1 54 2 61 7 19 71 18 90 -2z m164 -1 c2 -8 -6 -13 -22 -13 -16 0 -26
-6 -26 -15 0 -9 9 -15 21 -15 21 0 22 -24 1 -26 -7 -1 -17 -2 -23 -3 -20 -2 3
-21 27 -21 15 0 24 -6 24 -15 0 -11 -12 -15 -45 -15 l-45 0 0 63 c0 35 3 67 7
71 12 11 76 2 81 -11z m152 -3 c23 -23 27 -88 8 -109 -10 -11 -10 -14 0 -18
20 -8 13 -23 -11 -23 -12 0 -37 13 -55 29 -41 38 -46 100 -10 125 30 21 44 20
68 -4z m190 -45 c0 -47 -3 -57 -25 -71 -23 -15 -27 -15 -50 0 -22 14 -25 24
-25 71 0 42 3 55 15 55 11 0 15 -12 15 -50 0 -43 3 -50 20 -50 17 0 20 7 20
48 0 27 3 52 6 55 15 15 24 -7 24 -58z m102 -6 c2 -44 0 -54 -15 -57 -15 -3
-17 5 -17 56 0 95 29 96 32 1z m156 59 c-3 -7 -14 -14 -26 -16 -28 -4 -29 -22
-2 -22 11 0 20 -7 20 -15 0 -8 -9 -15 -20 -15 -11 0 -20 -7 -20 -16 0 -10 7
-14 22 -12 11 2 23 -3 26 -10 3 -10 -7 -12 -39 -10 l-44 3 -3 49 c-2 27 -1 55
2 62 7 18 90 20 84 2z m-1034 -133 c11 -8 17 -17 14 -21 -10 -10 -68 26 -68
42 0 16 15 10 54 -21z m693 -117 c-3 -7 -5 -2 -5 12 0 14 2 19 5 13 2 -7 2
-19 0 -25z"/>
<path d="M3712 3013 c2 -30 9 -41 31 -51 16 -8 27 -21 27 -33 0 -10 5 -19 10
-19 16 0 12 40 -5 46 -8 4 -15 18 -15 34 0 24 -26 60 -44 60 -4 0 -6 -17 -4
-37z"/>
<path d="M1465 1410 c10 -11 20 -18 23 -15 7 6 -18 35 -31 35 -5 0 -2 -9 8
-20z"/>
<path d="M1730 1700 c-17 -17 -20 -34 -20 -128 0 -119 10 -146 50 -140 16 2
27 12 31 28 11 39 10 209 -1 229 -15 29 -38 33 -60 11z"/>
<path d="M3017 1713 c-4 -3 -7 -33 -7 -65 0 -54 2 -58 23 -58 33 0 47 18 47
61 0 28 -6 42 -22 53 -25 18 -32 19 -41 9z"/>
<path d="M3260 1710 c-12 -7 -16 -36 -18 -127 -4 -135 5 -161 51 -149 l27 6 0
134 c0 113 -2 135 -16 140 -21 8 -26 7 -44 -4z"/>
<path d="M3216 1521 c-4 -7 -5 -15 -2 -18 9 -9 19 4 14 18 -4 11 -6 11 -12 0z"/>
<path d="M2247 1640 c-16 -64 -24 -120 -19 -125 3 -3 18 -5 34 -5 28 0 29 1
22 38 -4 20 -12 55 -19 77 -11 37 -13 38 -18 15z"/>
<path d="M1922 1199 c2 -6 8 -10 13 -10 5 0 11 4 13 10 2 6 -4 11 -13 11 -9 0
-15 -5 -13 -11z"/>
<path d="M2241 1196 c-19 -23 -10 -61 14 -61 14 0 21 8 23 26 4 33 -20 56 -37
35z"/>
<path d="M2554 4096 c-10 -26 5 -85 24 -95 9 -5 44 -12 77 -16 33 -4 87 -13
120 -20 59 -14 77 -13 59 4 -10 9 -161 41 -194 41 -25 0 -60 38 -60 66 0 28
-18 41 -26 20z"/>
<path d="M2256 4063 c-7 -39 -11 -43 -44 -49 -20 -3 -77 -15 -126 -25 -49 -10
-92 -16 -96 -14 -5 3 -11 19 -15 35 -4 17 -11 30 -16 30 -6 0 -7 -10 -3 -22
18 -61 25 -70 42 -66 10 3 61 13 113 22 141 26 142 27 151 65 5 18 7 40 5 49
-2 10 -7 -2 -11 -25z"/>
<path d="M2304 4089 c-2 -4 0 -10 6 -14 5 -3 10 -3 10 2 0 4 5 0 11 -10 11
-19 69 -21 69 -1 0 7 -10 9 -25 6 -18 -3 -25 0 -25 11 0 16 -37 20 -46 6z"/>
<path d="M1745 4046 c-44 -18 -127 -57 -184 -87 -71 -37 -106 -50 -108 -41 -5
14 -33 17 -33 3 0 -5 6 -12 13 -15 8 -3 6 -10 -8 -21 -19 -15 -30 -15 -67 0
-29 12 -21 -11 8 -24 23 -10 32 -8 68 13 86 50 184 99 276 138 52 22 102 46
110 54 19 19 17 18 -75 -20z"/>
<path d="M3744 4038 c-16 -18 -22 -27 -13 -20 9 6 18 9 22 6 3 -3 11 4 17 16
18 34 6 33 -26 -2z"/>
<path d="M1060 4052 c0 -6 35 -49 78 -95 223 -240 313 -350 305 -373 -2 -6 8
-19 22 -28 14 -9 25 -13 25 -10 0 12 -61 108 -96 151 -19 23 -34 46 -34 52 0
6 -6 11 -12 12 -7 0 -60 54 -118 120 -123 140 -170 187 -170 171z"/>
<path d="M1417 4044 c-7 -8 13 -54 24 -54 5 0 13 9 19 20 8 15 6 21 -9 30 -23
12 -26 12 -34 4z"/>
<path d="M2292 4020 c0 -14 2 -19 5 -12 2 6 2 18 0 25 -3 6 -5 1 -5 -13z"/>
<path d="M3208 4033 c7 -3 16 -2 19 1 4 3 -2 6 -13 5 -11 0 -14 -3 -6 -6z"/>
<path d="M2962 4008 c-6 -7 -13 -30 -17 -50 l-7 -37 96 -45 c52 -24 123 -61
156 -80 71 -42 80 -43 111 -16 22 19 22 20 2 8 -18 -10 -28 -9 -55 5 -18 9
-87 45 -153 80 l-120 62 3 43 c4 44 1 50 -16 30z"/>
<path d="M2338 4002 c-16 -2 -28 -8 -28 -13 0 -6 12 -8 29 -4 23 5 30 2 34
-12 4 -15 5 -14 6 4 1 26 -5 30 -41 25z"/>
<path d="M3725 3978 l-16 -33 20 25 c20 24 26 40 16 40 -2 0 -12 -15 -20 -32z"/>
<path d="M2280 3969 c0 -11 4 -18 10 -14 5 3 7 12 3 20 -7 21 -13 19 -13 -6z"/>
<path d="M2871 3964 c0 -11 3 -14 6 -6 3 7 2 16 -1 19 -3 4 -6 -2 -5 -13z"/>
<path d="M1470 3950 c0 -5 5 -10 10 -10 6 0 10 5 10 10 0 6 -4 10 -10 10 -5 0
-10 -4 -10 -10z"/>
<path d="M1916 3935 c4 -8 12 -15 20 -15 8 0 14 -5 14 -12 0 -6 2 -9 5 -7 11
11 -9 49 -26 49 -12 0 -16 -5 -13 -15z"/>
<path d="M2860 3928 c0 -4 7 -8 15 -8 8 0 15 4 15 8 0 5 -7 9 -15 9 -8 0 -15
-4 -15 -9z"/>
<path d="M1750 3879 c-78 -40 -98 -48 -113 -39 -11 6 -22 9 -25 5 -4 -3 0 -10
8 -15 16 -10 17 -9 -31 -38 -46 -28 -52 -27 -85 3 -28 26 -54 33 -54 15 0 -5
7 -10 15 -10 7 0 18 -6 22 -14 4 -7 18 -19 31 -25 20 -11 29 -8 70 16 53 33
225 117 260 127 23 8 31 26 10 26 -7 0 -56 -23 -108 -51z"/>
<path d="M3637 3823 c-50 -91 -78 -146 -69 -138 14 13 85 145 79 145 -3 0 -8
-3 -10 -7z"/>
<path d="M1370 3800 c0 -5 6 -10 14 -10 8 0 18 5 21 10 3 6 -3 10 -14 10 -12
0 -21 -4 -21 -10z"/>
<path d="M3397 3784 c-3 -16 2 -34 11 -45 22 -25 36 -12 18 16 -9 13 -13 31
-10 39 3 9 2 16 -4 16 -5 0 -12 -12 -15 -26z"/>
<path d="M1438 3736 c-10 -7 -18 -17 -18 -22 0 -4 5 -3 12 4 17 17 38 15 38
-3 0 -10 10 -15 30 -15 17 0 30 5 30 10 0 6 -11 10 -25 10 -16 0 -25 6 -25 15
0 18 -19 19 -42 1z"/>
<path d="M3820 3723 c-33 -14 -50 -29 -50 -45 0 -16 19 -7 56 27 21 19 36 35
33 34 -2 0 -20 -7 -39 -16z"/>
<path d="M3296 3722 c-14 -13 -3 -19 35 -20 22 -1 45 -4 50 -8 5 -3 9 -1 9 5
0 10 -12 14 -72 26 -9 1 -19 0 -22 -3z"/>
<path d="M3667 3683 c-4 -20 10 -41 76 -114 73 -81 95 -98 108 -84 3 2 -36 46
-85 96 -49 51 -85 94 -78 97 16 5 15 19 -2 25 -9 4 -16 -3 -19 -20z"/>
<path d="M1085 3590 c-38 -38 -75 -70 -82 -70 -7 0 -13 -4 -13 -10 0 -26 32
-3 99 70 40 44 71 80 69 80 -2 0 -35 -31 -73 -70z"/>
<path d="M3515 3600 c-14 -27 -23 -50 -20 -50 2 0 16 23 30 50 14 28 23 50 20
50 -2 0 -16 -22 -30 -50z"/>
<path d="M1029 3603 c-12 -14 -12 -15 0 -9 8 5 17 3 22 -5 6 -10 9 -8 9 9 0
26 -12 28 -31 5z"/>
<path d="M3575 3581 c-21 -47 -20 -48 68 -145 44 -48 58 -58 73 -51 16 7 16 9
3 12 -14 4 -129 134 -129 147 0 3 9 15 21 27 22 22 21 42 -3 47 -9 2 -22 -13
-33 -37z"/>
<path d="M3369 3585 c-1 -3 -2 -10 -3 -15 0 -6 -8 -15 -16 -20 -8 -5 -11 -10
-7 -10 15 0 57 37 50 44 -8 7 -22 8 -24 1z"/>
<path d="M1205 3560 c-3 -5 -2 -10 4 -10 5 0 13 5 16 10 3 6 2 10 -4 10 -5 0
-13 -4 -16 -10z"/>
<path d="M793 3543 c10 -11 78 -64 153 -118 99 -71 139 -95 152 -89 15 7 14 8
-5 11 -12 3 -32 15 -45 28 -13 14 -27 25 -32 25 -5 0 -38 22 -75 48 -107 79
-168 118 -148 95z"/>
<path d="M1130 3530 c0 -5 7 -10 16 -10 8 0 12 5 9 10 -3 6 -10 10 -16 10 -5
0 -9 -4 -9 -10z"/>
<path d="M1235 3520 c-10 -11 -22 -17 -28 -13 -6 4 -7 1 -2 -7 4 -7 4 -15 -1
-19 -5 -3 -20 -20 -34 -36 -13 -17 2 -4 35 27 32 32 57 60 54 63 -3 3 -14 -4
-24 -15z"/>
<path d="M950 3500 c6 -11 18 -20 27 -20 14 0 13 3 -5 20 -12 11 -24 20 -27
20 -3 0 -1 -9 5 -20z"/>
<path d="M3919 3463 c-13 -16 -12 -17 4 -4 16 13 21 21 13 21 -2 0 -10 -8 -17
-17z"/>
<path d="M3880 3440 c-9 -6 -10 -10 -3 -10 6 0 15 5 18 10 8 12 4 12 -15 0z"/>
<path d="M1042 3429 c2 -8 21 -23 41 -34 32 -17 38 -18 49 -5 7 8 9 12 4 8 -5
-4 -30 4 -54 18 -28 16 -43 21 -40 13z"/>
<path d="M3754 3414 c-18 -14 -18 -15 4 -4 12 6 22 13 22 15 0 8 -5 6 -26 -11z"/>
<path d="M3928 3396 c-24 -18 -23 -27 13 -87 42 -73 122 -234 144 -291 10 -27
21 -48 25 -48 4 0 5 -11 3 -24 -3 -13 0 -27 6 -30 6 -4 11 -18 11 -31 0 -52
24 -128 42 -133 10 -2 18 -8 18 -13 0 -5 7 -9 15 -9 22 0 18 18 -9 35 -17 12
-27 32 -36 78 -6 34 -16 72 -22 83 -6 12 -7 31 -3 43 3 11 2 21 -3 21 -5 0
-20 24 -32 53 -47 110 -90 197 -130 263 -35 56 -40 71 -31 86 13 21 12 22 -11
4z"/>
<path d="M3695 3350 c-3 -5 0 -10 9 -10 8 0 16 -6 19 -12 2 -7 8 -10 12 -6 11
11 -2 38 -19 38 -8 0 -18 -4 -21 -10z"/>
<path d="M975 3330 c3 -5 8 -10 11 -10 2 0 4 5 4 10 0 6 -5 10 -11 10 -5 0 -7
-4 -4 -10z"/>
<path d="M3808 3315 c-34 -30 -35 -42 -3 -89 14 -20 25 -41 25 -46 0 -5 6 -13
13 -17 6 -4 12 -12 12 -18 1 -5 17 -45 37 -87 20 -43 47 -109 59 -147 19 -57
25 -68 41 -63 16 4 18 1 13 -24 -4 -16 -8 -35 -11 -42 -2 -7 1 -34 7 -61 10
-47 11 -48 57 -59 26 -6 49 -8 52 -6 8 8 -23 24 -47 24 -12 0 -26 8 -31 18
-15 28 -23 90 -14 96 5 3 7 16 5 30 -5 24 17 50 25 28 2 -6 12 -22 23 -34 17
-20 17 -17 -3 24 -13 26 -27 48 -31 48 -5 0 -6 -4 -3 -9 3 -5 -5 -11 -19 -13
-22 -5 -26 0 -41 46 -23 71 -86 220 -96 227 -5 3 -6 13 -2 22 3 9 2 17 -4 17
-5 0 -24 23 -42 50 -34 53 -34 78 0 87 11 3 20 9 20 14 0 15 -13 10 -42 -16z"/>
<path d="M870 3310 c-6 -11 -8 -20 -6 -20 3 0 10 9 16 20 6 11 8 20 6 20 -3 0
-10 -9 -16 -20z"/>
<path d="M928 3268 c-14 -14 -15 -18 -4 -18 8 0 17 7 20 16 9 23 4 24 -16 2z"/>
<path d="M840 3260 c-6 -11 -8 -20 -6 -20 3 0 10 9 16 20 6 11 8 20 6 20 -3 0
-10 -9 -16 -20z"/>
<path d="M980 3180 c-6 -11 -8 -20 -6 -20 3 0 10 9 16 20 6 11 8 20 6 20 -3 0
-10 -9 -16 -20z"/>
<path d="M722 3141 c2 -8 13 -20 25 -28 18 -12 21 -12 27 2 3 10 2 14 -5 10
-6 -4 -20 1 -31 12 -14 12 -19 13 -16 4z"/>
<path d="M590 3100 c0 -5 5 -10 10 -10 6 0 10 5 10 10 0 6 -4 10 -10 10 -5 0
-10 -4 -10 -10z"/>
<path d="M883 3093 c-7 -2 -13 -8 -13 -12 0 -10 59 -1 66 10 5 9 -32 11 -53 2z"/>
<path d="M3985 3070 c3 -5 8 -10 11 -10 2 0 4 5 4 10 0 6 -5 10 -11 10 -5 0
-7 -4 -4 -10z"/>
<path d="M680 3045 c7 -9 15 -13 17 -11 7 7 -7 26 -19 26 -6 0 -6 -6 2 -15z"/>
<path d="M720 3039 c0 -5 5 -7 10 -4 6 3 10 8 10 11 0 2 -4 4 -10 4 -5 0 -10
-5 -10 -11z"/>
<path d="M3987 2949 c7 -7 15 -10 18 -7 3 3 -2 9 -12 12 -14 6 -15 5 -6 -5z"/>
<path d="M731 2814 c0 -11 3 -14 6 -6 3 7 2 16 -1 19 -3 4 -6 -2 -5 -13z"/>
<path d="M871 2734 c0 -11 3 -14 6 -6 3 7 2 16 -1 19 -3 4 -6 -2 -5 -13z"/>
<path d="M712 2698 c-1 -20 1 -39 6 -41 12 -6 92 14 92 23 0 5 -6 8 -12 6 -7
-3 -27 -7 -45 -10 -30 -5 -32 -3 -36 27 -4 32 -4 31 -5 -5z"/>
<path d="M4160 2706 c0 -9 5 -16 10 -16 6 0 10 4 10 9 0 6 -4 13 -10 16 -5 3
-10 -1 -10 -9z"/>
<path d="M4210 2690 c0 -11 7 -20 15 -20 17 0 18 2 9 24 -9 23 -24 20 -24 -4z"/>
<path d="M4175 2650 c-3 -5 -1 -10 4 -10 6 0 11 5 11 10 0 6 -2 10 -4 10 -3 0
-8 -4 -11 -10z"/>
<path d="M4207 2653 c-12 -11 -8 -22 14 -33 29 -16 35 -6 12 19 -11 12 -23 18
-26 14z"/>
<path d="M608 2637 c-34 -9 -53 -27 -29 -27 19 0 71 23 71 31 0 5 -1 8 -2 8
-2 -1 -20 -6 -40 -12z"/>
<path d="M4016 2642 c-3 -3 -6 -17 -6 -31 l1 -26 13 24 c15 27 17 25 31 -46
11 -52 27 -40 19 15 -3 26 -8 50 -10 53 -5 9 -42 18 -48 11z"/>
<path d="M776 2633 c5 -5 12 -12 16 -18 4 -6 8 -2 8 8 0 9 -7 17 -17 17 -9 0
-12 -3 -7 -7z"/>
<path d="M590 2586 c0 -2 7 -7 16 -10 8 -3 12 -2 9 4 -6 10 -25 14 -25 6z"/>
<path d="M4220 2580 c0 -5 5 -10 10 -10 6 0 10 5 10 10 0 6 -4 10 -10 10 -5 0
-10 -4 -10 -10z"/>
<path d="M640 2552 c0 -5 7 -9 15 -9 8 0 15 4 15 9 0 4 -7 8 -15 8 -8 0 -15
-4 -15 -8z"/>
<path d="M810 2552 c0 -4 9 -13 20 -20 11 -7 20 -9 20 -4 0 4 -9 13 -20 20
-11 7 -20 9 -20 4z"/>
<path d="M615 2512 c-54 -4 -362 -22 -403 -24 -18 -1 -29 -4 -25 -8 5 -4 136
-35 291 -69 156 -34 291 -65 300 -68 12 -4 14 -3 7 5 -5 6 -86 27 -180 48 -93
20 -213 47 -265 59 l-95 22 105 7 c162 10 437 12 523 3 49 -6 77 -5 77 1 0 6
-51 13 -117 16 -65 4 -131 8 -148 9 -16 1 -48 1 -70 -1z"/>
<path d="M4508 2453 c7 -3 16 -2 19 1 4 3 -2 6 -13 5 -11 0 -14 -3 -6 -6z"/>
<path d="M3995 2440 c27 -12 35 -12 35 0 0 6 -12 10 -27 9 -25 0 -26 -1 -8 -9z"/>
<path d="M4468 2443 c7 -3 16 -2 19 1 4 3 -2 6 -13 5 -11 0 -14 -3 -6 -6z"/>
<path d="M760 2416 c0 -14 4 -27 8 -30 5 -3 6 8 4 25 -5 35 -12 38 -12 5z"/>
<path d="M4034 2390 c-13 -62 -1 -66 15 -6 13 53 13 56 3 56 -4 0 -13 -22 -18
-50z"/>
<path d="M4418 2433 c6 -2 18 -2 25 0 6 3 1 5 -13 5 -14 0 -19 -2 -12 -5z"/>
<path d="M4340 2420 c-20 -6 -21 -8 -5 -8 11 0 31 4 45 8 20 6 21 8 5 8 -11 0
-31 -4 -45 -8z"/>
<path d="M4288 2403 c7 -3 16 -2 19 1 4 3 -2 6 -13 5 -11 0 -14 -3 -6 -6z"/>
<path d="M4238 2393 c6 -2 18 -2 25 0 6 3 1 5 -13 5 -14 0 -19 -2 -12 -5z"/>
<path d="M4188 2383 c6 -2 18 -2 25 0 6 3 1 5 -13 5 -14 0 -19 -2 -12 -5z"/>
<path d="M4148 2373 c7 -3 16 -2 19 1 4 3 -2 6 -13 5 -11 0 -14 -3 -6 -6z"/>
<path d="M4075 2360 c-25 -11 1 -11 35 0 20 6 21 8 5 8 -11 0 -29 -3 -40 -8z"/>
<path d="M570 2283 c0 -21 20 -55 20 -35 0 22 20 12 20 -10 1 -22 1 -22 14 -5
18 24 10 54 -17 61 -33 9 -37 7 -37 -11z"/>
<path d="M4182 2263 c-6 -21 -22 -101 -36 -178 -25 -132 -26 -140 -9 -152 9
-7 24 -13 32 -13 12 0 9 6 -8 19 -25 19 -25 23 10 161 4 19 11 53 14 75 9 60
15 75 28 72 7 -1 11 6 9 16 -2 9 2 17 8 17 6 0 8 5 5 10 -3 6 -15 10 -25 10
-14 0 -22 -11 -28 -37z"/>
<path d="M711 2276 c-8 -9 -9 -30 -2 -67 l9 -54 1 51 c1 48 3 52 26 52 14 0
25 -5 25 -11 0 -12 29 23 30 36 0 13 -77 7 -89 -7z"/>
<path d="M4026 2268 c-9 -12 -16 -32 -16 -43 0 -11 -11 -67 -24 -123 -21 -93
-21 -104 -7 -109 9 -2 24 -9 33 -14 10 -5 26 -9 35 -8 11 0 13 3 6 6 -7 2 -13
12 -13 21 0 12 -3 13 -12 4 -7 -7 -17 -8 -28 -2 -16 8 -15 16 7 112 12 57 23
111 23 120 0 18 26 36 48 32 6 -1 17 -2 23 -3 5 0 7 -7 3 -13 -6 -10 -4 -10 7
0 17 15 4 28 -38 37 -25 5 -34 2 -47 -17z"/>
<path d="M641 2224 c0 -11 3 -14 6 -6 3 7 2 16 -1 19 -3 4 -6 -2 -5 -13z"/>
<path d="M741 2181 c-10 -7 -7 -9 12 -8 15 1 27 5 27 10 0 10 -22 9 -39 -2z"/>
<path d="M4207 2173 c-12 -11 -8 -23 8 -23 8 0 15 7 15 15 0 16 -12 20 -23 8z"/>
<path d="M722 2130 c0 -14 2 -19 5 -12 2 6 2 18 0 25 -3 6 -5 1 -5 -13z"/>
<path d="M731 2090 c0 -24 24 -109 34 -119 6 -6 28 -2 55 9 25 11 40 19 34 19
-6 1 -28 -6 -47 -14 l-36 -15 -16 58 c-20 73 -23 80 -24 62z"/>
<path d="M4070 2090 c0 -5 5 -10 10 -10 6 0 10 5 10 10 0 6 -4 10 -10 10 -5 0
-10 -4 -10 -10z"/>
<path d="M4181 2068 c1 -38 13 -76 20 -62 3 5 4 15 3 22 -1 6 -2 26 -3 42 -1
41 -21 38 -20 -2z"/>
<path d="M3916 2064 c-4 -9 -4 -19 -1 -22 2 -3 7 3 11 12 4 9 4 19 1 22 -2 3
-7 -3 -11 -12z"/>
<path d="M646 2057 c3 -10 9 -15 12 -12 3 3 0 11 -7 18 -10 9 -11 8 -5 -6z"/>
<path d="M3944 1964 c3 -24 13 -31 77 -57 68 -27 237 -83 284 -94 51 -12 -19
19 -140 61 -193 67 -202 70 -198 82 2 6 -3 16 -11 23 -12 11 -14 8 -12 -15z"/>
<path d="M4170 1966 c0 -9 5 -16 10 -16 6 0 10 4 10 9 0 6 -4 13 -10 16 -5 3
-10 -1 -10 -9z"/>
<path d="M660 1959 c0 -5 5 -7 10 -4 6 3 10 8 10 11 0 2 -4 4 -10 4 -5 0 -10
-5 -10 -11z"/>
<path d="M640 1926 c6 -6 18 -5 32 1 21 10 21 10 -9 9 -19 -1 -28 -5 -23 -10z"/>
<path d="M668 1873 c-59 -20 -106 -38 -104 -40 4 -5 217 64 225 72 9 10 -17 3
-121 -32z"/>
<path d="M3884 1794 c-25 -54 -68 -136 -96 -182 -53 -87 -54 -103 -15 -140 27
-25 49 -16 40 17 -4 16 -11 21 -24 18 -14 -4 -17 1 -17 27 1 17 4 33 7 36 20
16 165 310 157 317 -3 3 -26 -39 -52 -93z"/>
<path d="M815 1866 c-17 -12 -17 -17 -5 -47 50 -125 176 -343 193 -332 4 3 1
10 -7 16 -28 21 -136 214 -176 315 -11 29 -11 34 6 47 11 8 16 15 13 15 -3 0
-14 -6 -24 -14z"/>
<path d="M520 1820 c-8 -5 -10 -10 -5 -10 6 0 17 5 25 10 8 5 11 10 5 10 -5 0
-17 -5 -25 -10z"/>
<path d="M690 1815 c-6 -8 -9 -24 -5 -37 10 -36 88 -198 92 -194 3 2 -11 35
-30 73 -18 37 -40 86 -47 107 -11 35 -11 41 6 53 10 7 13 13 7 13 -6 0 -16 -7
-23 -15z"/>
<path d="M4019 1703 c-69 -141 -136 -251 -198 -327 -40 -49 -40 -49 -23 -78
16 -28 32 -37 32 -18 0 6 -6 19 -12 30 -10 16 -10 25 4 47 19 32 38 41 38 19
0 -8 4 -17 9 -21 6 -3 9 11 8 33 -1 36 34 108 80 163 7 9 31 52 52 96 22 45
44 84 50 87 6 4 11 17 11 29 0 12 5 29 10 37 8 13 11 11 16 -7 4 -13 10 -23
15 -23 16 0 10 26 -10 44 -18 17 -21 13 -82 -111z"/>
<path d="M730 1811 c0 -6 4 -13 10 -16 6 -3 7 1 4 9 -7 18 -14 21 -14 7z"/>
<path d="M4123 1638 c-41 -14 -42 -23 -2 -37 45 -15 46 -15 45 19 -1 16 -3 30
-6 29 -3 -1 -20 -6 -37 -11z"/>
<path d="M3710 1620 c0 -5 5 -10 10 -10 6 0 10 5 10 10 0 6 -4 10 -10 10 -5 0
-10 -4 -10 -10z"/>
<path d="M3870 1615 c0 -8 4 -15 10 -15 5 0 7 7 4 15 -4 8 -8 15 -10 15 -2 0
-4 -7 -4 -15z"/>
<path d="M795 1590 c-3 -5 -1 -10 4 -10 6 0 11 5 11 10 0 6 -2 10 -4 10 -3 0
-8 -4 -11 -10z"/>
<path d="M4018 1593 c7 -3 16 -2 19 1 4 3 -2 6 -13 5 -11 0 -14 -3 -6 -6z"/>
<path d="M3810 1560 c6 -11 15 -18 21 -14 6 4 6 11 -2 20 -17 21 -31 17 -19
-6z"/>
<path d="M790 1561 c0 -6 4 -13 10 -16 6 -3 7 1 4 9 -7 18 -14 21 -14 7z"/>
<path d="M810 1527 c0 -8 83 -133 117 -175 52 -67 65 -82 73 -82 4 0 -5 14
-21 31 -16 17 -29 37 -29 44 0 7 -6 15 -14 18 -7 3 -35 38 -61 79 -53 80 -65
96 -65 85z"/>
<path d="M4040 1470 c0 -5 7 -10 15 -10 8 0 15 5 15 10 0 6 -7 10 -15 10 -8 0
-15 -4 -15 -10z"/>
<path d="M3666 1433 c-4 -9 -3 -20 2 -25 6 -6 11 1 14 16 6 29 -6 35 -16 9z"/>
<path d="M4040 1440 c0 -5 7 -10 15 -10 8 0 15 5 15 10 0 6 -7 10 -15 10 -8 0
-15 -4 -15 -10z"/>
<path d="M3605 1373 c-22 -20 -31 -31 -20 -24 28 15 69 51 64 55 -2 2 -22 -12
-44 -31z"/>
<path d="M1085 1380 c7 -11 45 -20 45 -10 0 4 -11 10 -25 12 -13 3 -22 2 -20
-2z"/>
<path d="M3665 1370 c-3 -5 -1 -10 4 -10 6 0 11 5 11 10 0 6 -2 10 -4 10 -3 0
-8 -4 -11 -10z"/>
<path d="M1139 1336 c-16 -31 -15 -56 2 -56 4 0 6 7 2 16 -3 8 0 26 7 40 8 13
11 26 9 28 -2 2 -11 -10 -20 -28z"/>
<path d="M3670 1331 c0 -11 31 -24 39 -16 3 3 -1 10 -9 15 -19 12 -30 12 -30
1z"/>
<path d="M3450 1312 c0 -9 59 -36 66 -29 3 3 -9 12 -27 21 -37 18 -39 19 -39
8z"/>
<path d="M1284 1296 c11 -9 24 -16 30 -16 12 0 7 5 -24 19 -24 11 -24 11 -6
-3z"/>
<path d="M3557 1303 c-7 -11 137 -153 155 -153 7 0 -11 24 -39 53 -29 30 -49
58 -46 67 4 13 3 13 -5 1 -8 -12 -15 -9 -34 14 -15 16 -27 24 -31 18z"/>
<path d="M3875 1300 c-4 -7 -2 -17 4 -23 6 -6 11 -19 11 -28 0 -18 27 -45 36
-36 9 8 -15 73 -31 87 -10 8 -15 8 -20 0z"/>
<path d="M1087 1260 c-3 -11 -1 -23 4 -26 5 -3 9 6 9 20 0 31 -6 34 -13 6z"/>
<path d="M1472 1202 c38 -32 84 -62 95 -62 4 0 -10 12 -32 27 -22 14 -48 34
-58 45 -10 10 -22 18 -28 18 -5 0 5 -13 23 -28z"/>
<path d="M1490 1210 c0 -5 5 -10 10 -10 6 0 10 5 10 10 0 6 -4 10 -10 10 -5 0
-10 -4 -10 -10z"/>
<path d="M3450 1180 c0 -4 53 -38 118 -76 167 -96 212 -119 184 -97 -13 11
-64 41 -113 69 -49 27 -112 63 -139 81 -28 17 -50 28 -50 23z"/>
<path d="M3735 1150 c4 -19 12 -40 19 -46 41 -39 274 -252 289 -263 15 -12 17
-12 12 0 -3 8 -71 73 -150 144 -96 87 -144 137 -144 151 -1 12 -8 28 -17 35
-15 12 -16 10 -9 -21z"/>
<path d="M3339 1129 l-24 -20 28 17 c15 9 27 18 27 20 0 8 -8 4 -31 -17z"/>
<path d="M1398 1124 c-16 -8 -28 -21 -28 -29 0 -26 300 -209 316 -192 3 2 -13
12 -36 21 -47 19 -242 139 -260 161 -10 12 -10 15 2 15 7 0 21 9 31 20 20 24
12 25 -25 4z"/>
<path d="M3280 1089 c-22 -18 -22 -19 -3 -10 12 6 25 16 28 21 9 15 3 12 -25
-11z"/>
<path d="M1195 1080 c-3 -6 1 -7 9 -4 18 7 21 14 7 14 -6 0 -13 -4 -16 -10z"/>
<path d="M1241 1062 c0 -7 -5 -10 -11 -7 -17 11 -11 -11 8 -28 22 -20 39 -23
24 -4 -5 6 -12 21 -15 32 -2 11 -5 14 -6 7z"/>
<path d="M1266 1062 c7 -4 14 -18 17 -32 4 -21 4 -20 6 8 1 24 -3 32 -16 32
-12 0 -14 -3 -7 -8z"/>
<path d="M3206 1047 c-16 -12 -17 -15 -3 -20 10 -4 17 1 20 14 6 23 6 23 -17
6z"/>
<path d="M3505 1050 c-4 -6 -2 -17 4 -23 15 -15 25 -2 13 19 -7 12 -11 13 -17
4z"/>
<path d="M3308 1037 c12 -7 19 -16 16 -20 -4 -4 -2 -7 4 -7 18 0 14 27 -4 34
-28 11 -40 6 -16 -7z"/>
<path d="M3437 1007 c-25 -20 -26 -24 -14 -41 10 -13 16 -15 21 -7 4 6 0 14
-9 17 -14 6 -12 10 12 30 15 13 26 23 23 24 -3 0 -18 -10 -33 -23z"/>
<path d="M3142 990 c-8 -16 -20 -30 -28 -30 -8 0 -14 -6 -14 -14 0 -26 12 -46
28 -46 12 0 13 3 4 12 -7 7 -12 19 -12 27 0 14 1 14 10 1 9 -14 15 -7 11 14
-1 4 5 19 14 32 17 26 19 34 7 34 -4 0 -13 -13 -20 -30z"/>
<path d="M1850 996 c0 -7 150 -59 155 -54 3 3 -14 10 -37 17 -24 7 -47 16 -53
21 -12 9 -65 22 -65 16z"/>
<path d="M3105 989 c-4 -6 -5 -12 -2 -15 2 -3 7 2 10 11 7 17 1 20 -8 4z"/>
<path d="M3200 988 c0 -5 13 -8 29 -8 16 0 37 -3 47 -7 11 -4 15 -3 11 4 -8
13 -87 22 -87 11z"/>
<path d="M3500 984 c0 -8 5 -12 10 -9 6 4 8 11 5 16 -9 14 -15 11 -15 -7z"/>
<path d="M1300 984 c0 -14 166 -124 186 -124 9 0 -6 12 -34 28 -28 15 -63 37
-77 50 -14 12 -28 22 -32 22 -3 0 -15 7 -25 17 -10 9 -18 12 -18 7z"/>
<path d="M1752 948 c-6 -18 -13 -42 -17 -53 -4 -12 -1 -10 8 5 15 27 30 80 23
80 -3 0 -9 -15 -14 -32z"/>
<path d="M3341 945 c-66 -42 -80 -56 -26 -26 40 22 94 61 85 61 -3 0 -29 -16
-59 -35z"/>
<path d="M3050 949 c0 -11 4 -18 10 -14 5 3 7 12 3 20 -7 21 -13 19 -13 -6z"/>
<path d="M1260 949 c0 -5 5 -7 10 -4 6 3 10 8 10 11 0 2 -4 4 -10 4 -5 0 -10
-5 -10 -11z"/>
<path d="M3010 952 c0 -4 4 -12 9 -17 4 -6 19 -39 33 -75 36 -90 130 -291 135
-286 5 4 -26 78 -80 196 -19 41 -44 101 -57 133 -12 31 -26 57 -31 57 -5 0 -9
-4 -9 -8z"/>
<path d="M1810 902 c-8 -26 -10 -46 -4 -51 12 -12 182 -71 202 -71 9 1 -28 16
-82 35 -111 38 -128 49 -104 67 10 9 13 21 8 38 -6 23 -8 22 -20 -18z"/>
<path d="M2903 913 c-15 -5 -17 -23 -4 -23 5 0 11 7 15 15 3 8 4 15 3 14 -1 0
-8 -3 -14 -6z"/>
<path d="M1760 899 c0 -5 5 -7 10 -4 6 3 10 8 10 11 0 2 -4 4 -10 4 -5 0 -10
-5 -10 -11z"/>
<path d="M2158 903 c6 -2 18 -2 25 0 6 3 1 5 -13 5 -14 0 -19 -2 -12 -5z"/>
<path d="M1500 889 c19 -19 50 -31 50 -20 0 5 -8 11 -17 15 -10 3 -25 9 -33
13 -13 5 -13 5 0 -8z"/>
<path d="M2239 892 c22 -7 27 -18 42 -97 44 -227 121 -590 126 -595 10 -9 -4
68 -57 320 -28 135 -57 274 -63 310 -12 62 -13 65 -42 67 -27 2 -28 1 -6 -5z"/>
<path d="M2930 894 c0 -17 17 -36 24 -26 3 5 -1 15 -9 22 -8 7 -15 9 -15 4z"/>
<path d="M1586 867 c3 -10 9 -15 12 -12 3 3 0 11 -7 18 -10 9 -11 8 -5 -6z"/>
<path d="M2531 873 c0 -6 -14 -76 -30 -155 -49 -238 -71 -355 -70 -374 0 -11
25 100 55 246 30 146 52 272 50 280 -2 8 -4 10 -5 3z"/>
<path d="M1716 855 c-9 -26 -7 -32 5 -12 6 10 9 21 6 23 -2 3 -7 -2 -11 -11z"/>
<path d="M3193 854 c-6 -17 32 -62 43 -51 4 4 -2 16 -14 28 -13 11 -20 24 -17
30 4 5 4 9 0 9 -3 0 -8 -7 -12 -16z"/>
<path d="M2720 845 c0 -8 2 -15 4 -15 2 0 6 7 10 15 3 8 1 15 -4 15 -6 0 -10
-7 -10 -15z"/>
<path d="M1535 828 c34 -25 107 -59 100 -47 -4 6 -28 20 -54 32 -65 30 -69 31
-46 15z"/>
<path d="M2597 834 c-4 -4 -7 -27 -7 -51 0 -41 1 -43 29 -43 17 0 32 4 35 9 3
5 -2 8 -11 7 -12 -1 -16 8 -17 38 -1 37 -14 55 -29 40z"/>
<path d="M3161 820 c-1 -27 14 -58 24 -48 3 3 -1 21 -9 39 -13 31 -14 32 -15
9z"/>
<path d="M1696 805 c-3 -9 -6 -22 -5 -28 0 -7 5 -1 10 12 5 13 8 26 5 28 -2 2
-6 -3 -10 -12z"/>
<path d="M2730 811 c0 -6 5 -13 10 -16 6 -3 10 1 10 9 0 9 -4 16 -10 16 -5 0
-10 -4 -10 -9z"/>
<path d="M2224 783 c5 -28 2 -32 -22 -36 l-27 -4 28 -2 c33 -1 45 20 28 52
-10 20 -11 19 -7 -10z"/>
<path d="M1777 783 c-2 -5 -7 -20 -11 -34 -4 -20 -1 -29 11 -33 10 -4 15 -4
11 -1 -3 3 -2 22 2 41 7 30 -1 47 -13 27z"/>
<path d="M2045 770 c11 -5 29 -8 40 -8 16 0 15 2 -5 8 -34 11 -60 11 -35 0z"/>
<path d="M2720 770 c0 -5 5 -10 11 -10 5 0 7 5 4 10 -3 6 -8 10 -11 10 -2 0
-4 -4 -4 -10z"/>
<path d="M1676 745 c-3 -9 -6 -22 -5 -28 0 -7 5 -1 10 12 5 13 8 26 5 28 -2 2
-6 -3 -10 -12z"/>
<path d="M2138 753 c7 -3 16 -2 19 1 4 3 -2 6 -13 5 -11 0 -14 -3 -6 -6z"/>
<path d="M2335 740 c-3 -5 -1 -10 4 -10 6 0 11 5 11 10 0 6 -2 10 -4 10 -3 0
-8 -4 -11 -10z"/>
<path d="M2071 693 c1 -12 79 -77 79 -65 0 6 -18 25 -40 42 -22 17 -40 28 -39
23z"/>
<path d="M2850 689 c0 -5 5 -7 10 -4 6 3 10 8 10 11 0 2 -4 4 -10 4 -5 0 -10
-5 -10 -11z"/>
<path d="M1935 664 c84 -23 113 -26 55 -5 -30 11 -66 20 -80 20 -16 0 -6 -6
25 -15z"/>
<path d="M2571 666 c-6 -7 -9 -21 -5 -30 4 -10 1 -16 -7 -16 -9 0 -10 -3 -2
-11 6 -6 21 -8 33 -4 16 5 19 10 10 15 -9 5 -9 9 -1 14 16 10 14 46 -3 46 -7
0 -19 -6 -25 -14z"/>
<path d="M2685 665 c-16 -8 -25 -14 -18 -15 7 0 10 -7 6 -17 -3 -10 -4 -16 -2
-13 2 3 15 17 28 33 28 30 27 31 -14 12z"/>
<path d="M2260 636 c0 -8 -6 -17 -12 -19 -8 -3 -6 -6 5 -6 11 -1 17 6 17 19 0
11 -2 20 -5 20 -3 0 -5 -6 -5 -14z"/>
<path d="M2058 633 c6 -2 18 -2 25 0 6 3 1 5 -13 5 -14 0 -19 -2 -12 -5z"/>
<path d="M2178 613 c6 -2 18 -2 25 0 6 3 1 5 -13 5 -14 0 -19 -2 -12 -5z"/>
<path d="M2421 304 c0 -11 3 -14 6 -6 3 7 2 16 -1 19 -3 4 -6 -2 -5 -13z"/>
</g>
</svg>
